<?xml version="1.0" encoding="utf-8"?>
<!-- Generator: Adobe Illustrator 16.0.0, SVG Export Plug-In . SVG Version: 6.00 Build 0)  -->
<!DOCTYPE svg PUBLIC "-//W3C//DTD SVG 1.0//EN" "http://www.w3.org/TR/2001/REC-SVG-20010904/DTD/svg10.dtd">
<svg version="1.0" id="Layer_1" xmlns="http://www.w3.org/2000/svg" xmlns:xlink="http://www.w3.org/1999/xlink" x="0px" y="0px"
	 width="600px" height="600px" viewBox="0 0 600 600" enable-background="new 0 0 600 600" xml:space="preserve">
<g>
	<path fill="#010101" d="M386.912,193.466c0-77.8-66.1-140.9-144-140.9c-77.9,0-144,63.1-144,141c0,31,13.2,59,30.2,83h-0.3
		c10.9,15,21.4,27.7,31.5,45c22,37.8,18.6,74.3,18.7,81.6v1.4h128v-1.4c0-8.899-3.6-43.8,18.4-81.6c10.1-17.3,20.6-30,31.5-45h-0.1
		C373.712,252.566,386.912,224.566,386.912,193.466z M337.912,274.966c-0.6,0.8-1.1,1.5-1.7,2.3c-8.1,10.899-16.5,22.2-24.7,36.1
		c-17.3,29.7-20.399,57.9-20.8,75.101h-15.8v-111.9l32-64h-16.6l-31.4,64v112h-32v-112l-31.4-64h-16.6l32,64v112h-15.9
		c-0.5-17.2-3.9-45.7-20.9-75c-4.5-7.7-9.1-15-13.7-21h0.2l-18.6-25.6c-15.8-21.6-27.1-47.1-27.1-73.6c0-33.4,16-64.8,39.6-88.4
		s55-36.7,88.4-36.7c33.4,0,64.8,13.1,88.4,36.7c23.6,23.6,39.6,55,39.6,88.4c0,26.5-11.3,51.9-27.1,73.5L337.912,274.966z"/>
	<rect x="210.912" y="484.566" fill="#010101" width="64" height="16"/>
	<rect x="194.912" y="452.566" fill="#010101" width="96" height="16"/>
	<rect x="194.912" y="420.566" fill="#010101" width="96" height="16"/>
</g>
<g>
	<path fill="#010101" d="M589.875,357.1c0-40.972-35.117-74.202-76.504-74.202c-41.386,0-76.503,33.23-76.503,74.254
		c0,16.325,7.013,31.07,16.045,43.71h-0.16c5.791,7.899,11.369,14.588,16.735,23.698c11.688,19.906,9.882,39.129,9.936,42.973v0.737
		h68.002v-0.737c0-4.687-1.912-23.066,9.775-42.973c5.366-9.11,10.944-15.799,16.735-23.698h-0.053
		C582.862,388.223,589.875,373.478,589.875,357.1z M563.843,400.02c-0.318,0.422-0.584,0.79-0.903,1.212
		c-4.303,5.739-8.766,11.69-13.123,19.011c-9.19,15.641-10.837,30.492-11.05,39.55h-8.395v-58.93l17.001-33.704h-8.818
		l-16.683,33.704v58.981h-17.001v-58.981l-16.682-33.704h-8.819l17.001,33.704v58.981h-8.447
		c-0.266-9.057-2.072-24.066-11.104-39.496c-2.391-4.055-4.835-7.899-7.279-11.06h0.106l-9.881-13.481
		c-8.395-11.375-14.398-24.804-14.398-38.76c0-17.59,8.501-34.125,21.039-46.554s29.22-19.327,46.964-19.327
		c17.745,0,34.427,6.898,46.965,19.327s21.039,28.964,21.039,46.554c0,13.956-6.004,27.332-14.397,38.707L563.843,400.02z"/>
	<rect x="496.371" y="510.4" fill="#010101" width="34.001" height="8.426"/>
	<rect x="487.87" y="493.548" fill="#010101" width="51.003" height="8.427"/>
	<rect x="487.87" y="476.696" fill="#010101" width="51.003" height="8.426"/>
</g>
<circle fill="#010101" cx="31.246" cy="301.657" r="24"/>
<circle fill="#010101" cx="370.229" cy="508.566" r="24"/>
<circle fill="#010101" cx="562.873" cy="136.664" r="24"/>
<line fill="none" stroke="#000000" stroke-width="14" stroke-miterlimit="10" x1="127.899" y1="256.068" x2="31.246" y2="301.657"/>
<line fill="none" stroke="#000000" stroke-width="14" stroke-miterlimit="10" x1="324.912" y1="312.566" x2="370.229" y2="508.566"/>
<line fill="none" stroke="#000000" stroke-width="14" stroke-miterlimit="10" x1="370.229" y1="508.566" x2="474.912" y2="428.566"/>
<line fill="none" stroke="#000000" stroke-width="14" stroke-miterlimit="10" x1="521.723" y1="287.566" x2="562.873" y2="136.664"/>
</svg>
